<?xml version="1.0" encoding="UTF-8" standalone="no"?>
<!-- Created with Inkscape (http://www.inkscape.org/) -->

<svg
   width="100mm"
   height="100mm"
   viewBox="0 0 100 100"
   version="1.1"
   id="svg1"
   xml:space="preserve"
   inkscape:version="1.3.2 (091e20e, 2023-11-25, custom)"
   sodipodi:docname="1.svg"
   xmlns:inkscape="http://www.inkscape.org/namespaces/inkscape"
   xmlns:sodipodi="http://sodipodi.sourceforge.net/DTD/sodipodi-0.dtd"
   xmlns="http://www.w3.org/2000/svg"
   xmlns:svg="http://www.w3.org/2000/svg"><sodipodi:namedview
     id="namedview1"
     pagecolor="#ffffff"
     bordercolor="#000000"
     borderopacity="0.59215686"
     inkscape:showpageshadow="2"
     inkscape:pageopacity="0.0"
     inkscape:pagecheckerboard="false"
     inkscape:deskcolor="#d1d1d1"
     inkscape:document-units="mm"
     inkscape:zoom="0.93974427"
     inkscape:cx="213.35592"
     inkscape:cy="281.45955"
     inkscape:window-width="1920"
     inkscape:window-height="1009"
     inkscape:window-x="1912"
     inkscape:window-y="-8"
     inkscape:window-maximized="1"
     inkscape:current-layer="layer1" /><defs
     id="defs1" /><g
     inkscape:groupmode="layer"
     id="layer2"
     inkscape:label="Layer 2"><path
       style="fill:#000000;stroke-width:0.250885;stroke-dasharray:none"
       id="path5"
       sodipodi:type="arc"
       sodipodi:cx="52.148613"
       sodipodi:cy="48.280869"
       sodipodi:rx="17.905666"
       sodipodi:ry="16.895706"
       sodipodi:start="1.3772327"
       sodipodi:end="1.3707326"
       sodipodi:open="true"
       sodipodi:arc-type="arc"
       d="M 55.592897,64.861047 A 17.905666,16.895706 0 0 1 34.582956,51.557818 17.905666,16.895706 0 0 1 48.64724,31.71134 17.905666,16.895706 0 0 1 69.702891,44.950067 17.905666,16.895706 0 0 1 55.707038,64.839572"
       transform="matrix(0.99986143,0.01664691,-0.02170933,0.99976432,0,0)" /></g><g
     inkscape:label="Layer 1"
     inkscape:groupmode="layer"
     id="layer1"><path
       style="fill:#000000;stroke-width:0.253348;stroke-dasharray:none"
       id="path4"
       sodipodi:type="arc"
       sodipodi:cx="29.522717"
       sodipodi:cy="43.049347"
       sodipodi:rx="17.599119"
       sodipodi:ry="17.599119"
       sodipodi:start="1.3772327"
       sodipodi:end="1.3707326"
       sodipodi:open="true"
       sodipodi:arc-type="arc"
       d="M 32.908034,60.319802 A 17.599119,17.599119 0 0 1 12.257785,46.462724 17.599119,17.599119 0 0 1 26.081288,25.789985 17.599119,17.599119 0 0 1 46.776463,39.579876 17.599119,17.599119 0 0 1 33.020221,60.297433" /><path
       style="fill:#ececec;stroke-width:0.211676;stroke-dasharray:none"
       id="path4-3-4"
       sodipodi:type="arc"
       sodipodi:cx="29.349571"
       sodipodi:cy="42.974678"
       sodipodi:rx="14.704366"
       sodipodi:ry="14.704366"
       sodipodi:start="1.3772327"
       sodipodi:end="1.3707326"
       sodipodi:open="true"
       sodipodi:arc-type="arc"
       d="M 32.178062,57.404439 A 14.704366,14.704366 0 0 1 14.924425,45.826613 14.704366,14.704366 0 0 1 26.474198,28.554186 14.704366,14.704366 0 0 1 43.765372,40.075875 14.704366,14.704366 0 0 1 32.271796,57.385749" /><path
       style="fill:#000000;stroke-width:0.253348;stroke-dasharray:none"
       id="path4-8"
       sodipodi:type="arc"
       sodipodi:cx="41.918247"
       sodipodi:cy="72.904472"
       sodipodi:rx="17.599119"
       sodipodi:ry="17.599119"
       sodipodi:start="1.3772327"
       sodipodi:end="1.3707326"
       sodipodi:open="true"
       sodipodi:arc-type="arc"
       d="M 45.303564,90.174928 A 17.599119,17.599119 0 0 1 24.653316,76.31785 17.599119,17.599119 0 0 1 38.476818,55.645111 17.599119,17.599119 0 0 1 59.171994,69.435001 17.599119,17.599119 0 0 1 45.415752,90.152558" /><path
       style="fill:#666666;stroke-width:0.211676;stroke-dasharray:none"
       id="path4-3-4-6"
       sodipodi:type="arc"
       sodipodi:cx="41.745098"
       sodipodi:cy="72.829803"
       sodipodi:rx="14.704366"
       sodipodi:ry="14.704366"
       sodipodi:start="1.3772327"
       sodipodi:end="1.3707326"
       sodipodi:open="true"
       sodipodi:arc-type="arc"
       d="M 44.573589,87.259565 A 14.704366,14.704366 0 0 1 27.319952,75.681739 14.704366,14.704366 0 0 1 38.869725,58.409311 14.704366,14.704366 0 0 1 56.160899,69.931001 14.704366,14.704366 0 0 1 44.667323,87.240875" /><path
       style="fill:#000000;stroke-width:0.253348;stroke-dasharray:none"
       id="path4-1"
       sodipodi:type="arc"
       sodipodi:cx="70.700775"
       sodipodi:cy="57.170334"
       sodipodi:rx="17.599119"
       sodipodi:ry="17.599119"
       sodipodi:start="1.3772327"
       sodipodi:end="1.3707326"
       sodipodi:open="true"
       sodipodi:arc-type="arc"
       d="M 74.086092,74.440789 A 17.599119,17.599119 0 0 1 53.435844,60.583711 17.599119,17.599119 0 0 1 67.259346,39.910972 17.599119,17.599119 0 0 1 87.954522,53.700863 17.599119,17.599119 0 0 1 74.19828,74.41842" /><path
       style="fill:#666666;stroke-width:0.211676;stroke-dasharray:none"
       id="path4-3-4-3"
       sodipodi:type="arc"
       sodipodi:cx="70.753731"
       sodipodi:cy="57.246407"
       sodipodi:rx="14.704366"
       sodipodi:ry="14.704366"
       sodipodi:start="1.3772327"
       sodipodi:end="1.3707326"
       sodipodi:open="true"
       sodipodi:arc-type="arc"
       d="M 73.582221,71.676168 A 14.704366,14.704366 0 0 1 56.328585,60.098342 14.704366,14.704366 0 0 1 67.878358,42.825914 14.704366,14.704366 0 0 1 85.169532,54.347604 14.704366,14.704366 0 0 1 73.675956,71.657478" /><path
       style="fill:#000000;stroke-width:0.253348;stroke-dasharray:none"
       id="path4-2"
       sodipodi:type="arc"
       sodipodi:cx="57.849602"
       sodipodi:cy="27.149712"
       sodipodi:rx="17.599119"
       sodipodi:ry="17.599119"
       sodipodi:start="1.3772327"
       sodipodi:end="1.3707326"
       sodipodi:open="true"
       sodipodi:arc-type="arc"
       d="M 61.234919,44.420167 A 17.599119,17.599119 0 0 1 40.584671,30.563089 17.599119,17.599119 0 0 1 54.408173,9.89035 17.599119,17.599119 0 0 1 75.103348,23.68024 17.599119,17.599119 0 0 1 61.347106,44.397797" /><path
       style="fill:#666666;stroke-width:0.211676;stroke-dasharray:none"
       id="path4-3-4-4"
       sodipodi:type="arc"
       sodipodi:cx="57.902561"
       sodipodi:cy="26.999666"
       sodipodi:rx="14.704366"
       sodipodi:ry="14.704366"
       sodipodi:start="1.3772327"
       sodipodi:end="1.3707326"
       sodipodi:open="true"
       sodipodi:arc-type="arc"
       d="M 60.731052,41.429428 A 14.704366,14.704366 0 0 1 43.477415,29.851602 14.704366,14.704366 0 0 1 55.027188,12.579174 14.704366,14.704366 0 0 1 72.318362,24.100864 14.704366,14.704366 0 0 1 60.824786,41.410737" /></g></svg>
