<?xml version="1.0" encoding="UTF-8" standalone="no"?>
<!-- Created with Inkscape (http://www.inkscape.org/) -->

<svg
   width="100mm"
   height="100mm"
   viewBox="0 0 100 100"
   version="1.1"
   id="svg1"
   xml:space="preserve"
   inkscape:version="1.3.2 (091e20e, 2023-11-25, custom)"
   sodipodi:docname="Heat Engager.svg"
   xmlns:inkscape="http://www.inkscape.org/namespaces/inkscape"
   xmlns:sodipodi="http://sodipodi.sourceforge.net/DTD/sodipodi-0.dtd"
   xmlns:xlink="http://www.w3.org/1999/xlink"
   xmlns="http://www.w3.org/2000/svg"
   xmlns:svg="http://www.w3.org/2000/svg"><sodipodi:namedview
     id="namedview1"
     pagecolor="#ffffff"
     bordercolor="#000000"
     borderopacity="0.59215686"
     inkscape:showpageshadow="2"
     inkscape:pageopacity="0.0"
     inkscape:pagecheckerboard="false"
     inkscape:deskcolor="#d1d1d1"
     inkscape:document-units="mm"
     inkscape:zoom="0.66449953"
     inkscape:cx="-6.0195678"
     inkscape:cy="289.6917"
     inkscape:window-width="1920"
     inkscape:window-height="1009"
     inkscape:window-x="1912"
     inkscape:window-y="-8"
     inkscape:window-maximized="1"
     inkscape:current-layer="layer1" /><defs
     id="defs1"><linearGradient
       id="linearGradient12"
       inkscape:collect="always"><stop
         style="stop-color:#00ffff;stop-opacity:1;"
         offset="0"
         id="stop12" /><stop
         style="stop-color:#ff00ff;stop-opacity:1"
         offset="1"
         id="stop13" /></linearGradient><inkscape:path-effect
       effect="fillet_chamfer"
       id="path-effect1"
       is_visible="true"
       lpeversion="1"
       nodesatellites_param="F,0,0,1,0,13.229167,0,1 @ F,0,0,1,0,13.229167,0,1 @ F,0,0,1,0,13.229167,0,1 @ F,0,0,1,0,13.229167,0,1"
       radius="50"
       unit="px"
       method="auto"
       mode="F"
       chamfer_steps="1"
       flexible="false"
       use_knot_distance="true"
       apply_no_radius="true"
       apply_with_radius="true"
       only_selected="false"
       hide_knots="false" /><linearGradient
       inkscape:collect="always"
       xlink:href="#linearGradient12"
       id="linearGradient13"
       x1="-6.3348351"
       y1="-4.3639975"
       x2="107.1291"
       y2="104.17284"
       gradientUnits="userSpaceOnUse" /></defs><g
     inkscape:label="Layer 1"
     inkscape:groupmode="layer"
     id="layer1"><g
       id="g4"><g
         id="g3"><g
           id="g2"><g
             id="g1"><path
               style="opacity:1;fill:url(#linearGradient13);fill-opacity:1;stroke-width:0.264999"
               id="rect1"
               width="85.009148"
               height="86.00457"
               x="7.7643018"
               y="6.7688785"
               inkscape:path-effect="#path-effect1"
               sodipodi:type="rect"
               d="M 20.993469,6.7688785 H 79.544282 A 13.229167,13.229167 45 0 1 92.773449,19.998045 V 79.544281 A 13.229167,13.229167 135 0 1 79.544282,92.773448 H 20.993469 A 13.229167,13.229167 45 0 1 7.7643018,79.544281 V 19.998045 A 13.229167,13.229167 135 0 1 20.993469,6.7688785 Z"
               transform="translate(-0.14077411)" /></g></g></g></g><path
       fill="#fefeff"
       opacity="1"
       stroke="none"
       d="m 19.403106,33.121332 c -0.404231,-0.156466 -0.777112,-0.307842 -1.180368,-0.461657 -0.326102,-0.123747 -0.627676,-0.233017 -0.914522,-0.372573 -0.107242,-0.05219 -0.180139,-0.174954 -0.268699,-0.265542 0.111105,-0.06437 0.217364,-0.173345 0.334079,-0.186007 0.913121,-0.09906 1.828125,-0.181022 2.742796,-0.265538 1.010953,-0.09341 2.023847,-0.168982 3.03258,-0.28193 0.514482,-0.0576 0.951688,-0.320183 1.107254,-0.830916 0.159795,-0.524627 -0.02954,-1.015185 -0.470381,-1.333023 -0.88005,-0.634499 -1.789229,-1.228598 -2.71497,-1.846652 -0.810847,-0.476615 -1.593094,-0.945957 -2.403108,-1.420879 -0.882608,-0.499875 -1.737447,-0.994172 -2.621611,-1.493079 -0.336711,-0.197824 -0.644091,-0.391039 -0.951478,-0.584256 0.01894,-0.05184 0.03783,-0.103689 0.0567,-0.155533 0.350439,0.07505 0.700879,0.1501 1.084025,0.224099 0.513446,0.140907 0.994186,0.282865 1.506921,0.421088 0.315189,0.0873 0.598381,0.178326 0.913401,0.275539 0.620741,0.182509 1.209656,0.358836 1.858381,0.551437 1.13473,0.25566 2.209644,0.495044 3.316509,0.747473 1.123601,0.249176 2.215253,0.485312 3.33304,0.736978 1.043795,0.241919 2.061457,0.468306 3.110806,0.704933 1.125424,0.177118 2.219161,0.343997 3.343095,0.527448 0.934707,0.03741 1.839241,0.05739 2.743728,0.0794 0.643284,0.01564 1.200634,-0.231091 1.708541,-0.590325 0.774902,-0.548066 0.950257,-1.413997 0.414556,-2.195535 -0.270388,-0.394474 -0.632399,-0.726145 -0.965072,-1.111622 -0.722243,-0.597641 -1.432394,-1.169874 -2.159612,-1.765384 -0.814553,-0.524861 -1.612045,-1.026446 -2.424518,-1.550294 -0.843985,-0.493433 -1.672983,-0.964598 -2.520619,-1.458148 -0.934594,-0.477652 -1.850543,-0.93292 -2.766496,-1.388189 -0.310391,-0.167838 -0.620781,-0.335674 -1.031155,-0.557575 0.650346,-0.367669 1.238228,-0.133837 1.829842,-0.20505 0.989671,0.05442 1.940657,0.115613 2.929561,0.172298 1.127649,0.0903 2.217379,0.1851 3.345538,0.275753 0.677057,0.07656 1.315691,0.157286 1.954316,0.238024 0.203411,0.02571 0.406809,0.05151 0.644774,0.07121 0.681389,0.106499 1.328218,0.219058 2.008959,0.330092 0.624773,0.115596 1.215625,0.232719 1.840726,0.345648 0.848901,0.159455 1.663556,0.323107 2.511378,0.481232 0.841715,0.158712 1.650262,0.322953 2.519957,0.503298 0.993799,0.277441 1.926451,0.538776 2.880393,0.821378 1.095927,0.366026 2.170561,0.710787 3.266047,1.076069 1.096994,0.418386 2.173137,0.816251 3.273128,1.231967 1.470508,0.593993 2.917164,1.170132 4.363827,1.746274 0.02544,-0.03611 0.0509,-0.07223 0.07636,-0.108343 -0.37205,-0.407417 -0.728252,-0.830832 -1.11972,-1.218652 -0.651023,-0.644957 -1.32468,-1.267076 -1.999963,-1.923091 -0.81818,-0.691871 -1.625204,-1.359465 -2.446331,-2.05103 -0.86549,-0.634653 -1.716884,-1.245334 -2.586971,-1.87542 -0.521563,-0.338183 -1.030697,-0.647732 -1.523166,-0.981844 -0.132866,-0.09014 -0.215171,-0.254811 -0.320683,-0.385269 0.01672,-0.0029 0.03343,-0.0056 0.07176,-0.02195 0.960761,0.255941 1.899913,0.52532 2.867103,0.800671 0.911579,0.387399 1.795116,0.768827 2.707502,1.154696 0.878,0.426036 1.727141,0.847635 2.606682,1.275111 0.823036,0.439645 1.615678,0.873413 2.435498,1.318285 0.8966,0.488398 1.766007,0.965692 2.664824,1.451726 0.79612,0.439484 1.562842,0.870225 2.359019,1.303933 0.539488,0.33578 1.049528,0.668589 1.586652,1.012002 0.538519,0.339895 1.049948,0.669189 1.606195,1.0272 0.785037,0.493215 1.525262,0.957706 2.281747,1.443891 0.760537,0.615811 1.504805,1.209931 2.261543,1.828825 1.193018,1.023696 2.37357,2.022618 3.588198,3.050372 0,-0.161143 0.01932,-0.296962 -0.0031,-0.425523 C 76.9207,30.017178 76.776062,28.987142 76.537178,27.979602 76.379255,27.313553 76.082546,26.680403 75.848985,26.001678 75.333863,25.105025 74.817737,24.239221 74.288774,23.349642 73.845662,22.8353 73.420316,22.340248 72.981531,21.857417 72.87602,21.741319 72.725901,21.66576 72.596298,21.571558 c 0.107671,-0.311714 0.283328,-0.03916 0.456452,-0.04754 0.761706,0.449506 1.493023,0.896981 2.253201,1.35123 0.68043,0.69483 1.331999,1.382887 2.007522,2.086948 0.423702,0.642323 0.829058,1.265164 1.220726,1.8965 0.1818,0.293049 0.336981,0.602614 0.525126,0.923318 0.340007,0.730476 0.659117,1.442321 0.99607,2.176301 0.28629,0.704232 0.554734,1.386329 0.842771,2.089739 0.26848,0.754276 0.517364,1.487238 0.784118,2.244666 0.288459,0.982056 0.559049,1.939645 0.844357,2.925303 0.239503,1.234248 0.464284,2.440434 0.703258,3.678197 0.236912,1.35254 0.459633,2.673504 0.6974,4.022794 0.1391,1.057112 0.26519,2.085658 0.386197,3.114797 0.04681,0.398096 0.08209,0.797544 0.132292,1.230096 0.06037,1.516614 0.111076,2.99952 0.169871,4.517262 0.0013,1.318055 -0.0053,2.601268 -0.0069,3.923221 -0.06964,0.737465 -0.139759,1.436717 -0.220817,2.134697 -0.04603,0.39633 -0.109953,0.790584 -0.160358,1.220904 -0.212167,1.149564 -0.429796,2.26401 -0.650133,3.413962 -0.464604,1.551488 -0.926507,3.067464 -1.390384,4.616137 -0.751239,1.872759 -1.477193,3.722846 -2.262496,5.5474 -0.272285,0.632623 -0.691749,1.201902 -1.051561,1.827806 -1.427212,1.992777 -3.264583,3.521297 -5.192033,4.994138 -0.99949,0.554841 -2.062941,0.671419 -3.159705,0.650878 -0.76402,-0.01435 -1.528755,0.0093 -2.331683,0.02334 -1.602552,0.01393 -3.166591,0.0205 -4.769055,0.03477 -1.407733,0.007 -2.777047,0.0061 -4.184978,0.01272 -1.240203,0.0041 -2.441786,0.0013 -3.682152,0.0047 -1.21242,0.0035 -2.386061,0.0013 -3.598586,0.0041 -0.933415,0.0072 -1.827941,0.0088 -2.760971,0.0178 -0.849618,0.0072 -1.660731,0.0069 -2.510693,0.01211 -1.045148,0.01069 -2.051456,0.01611 -3.095915,0.03078 -1.323694,0.0075 -2.609237,0.0061 -3.933304,0.01177 -1.463314,0.0061 -2.888103,0.0041 -4.351681,0.0079 -1.661538,0.0074 -3.284282,0.0086 -4.939742,0.01868 -1.363631,0.0155 -2.694549,0.02199 -4.025468,0.02849 -0.429714,0.002 -0.859432,0.0041 -1.327371,0.01515 -1.606757,-0.03078 -3.175307,-0.07056 -4.74382,-0.111626 -0.221952,-0.0061 -0.443742,-0.01799 -0.699735,-0.02118 -0.364452,-0.04426 -0.694761,-0.09452 -1.02508,-0.144765 -0.0086,-0.06414 -0.01698,-0.128304 -0.02551,-0.192459 1.047732,-0.327152 2.095471,-0.654302 3.20083,-0.995959 0.756265,-0.187866 1.453782,-0.365894 2.153775,-0.533582 1.398323,-0.334916 2.79808,-0.664252 4.232444,-0.990909 0.730806,-0.128602 1.438275,-0.218792 2.119761,-0.404385 1.701089,-0.463269 3.394391,-0.956532 5.082647,-1.464898 0.813696,-0.245018 0.818995,-0.921383 0.50291,-1.460865 -0.153486,-0.261946 -0.406999,-0.524109 -0.678277,-0.647008 -0.768953,-0.348363 -1.570412,-0.624984 -2.388633,-0.944178 -0.166866,-0.02274 -0.315681,6.02e-4 -0.439699,-0.04439 -1.319325,-0.478718 -2.688324,-0.512953 -4.066704,-0.47373 -1.036835,-0.142703 -2.038344,0.07545 -3.067885,0.314524 -0.704928,0.263672 -1.385392,0.500239 -2.055991,0.762071 -0.265526,0.103663 -0.509138,0.26347 -0.789711,0.409352 0.199442,-0.39182 0.367653,-0.845116 0.66275,-1.189771 1.072992,-1.253189 2.42696,-2.165837 3.858799,-2.950169 1.511842,-0.82815 2.770048,-1.948606 3.9312,-3.197643 0.987588,-1.062329 1.934592,-2.15524 2.563625,-3.481136 0.362525,-0.764137 0.581645,-1.562449 0.534819,-2.447245 C 33.769654,61.351566 33.67918,60.610392 33.562826,59.848554 33.412764,59.368041 33.288579,58.908198 33.145972,58.425722 32.971273,58.024483 32.814991,57.645875 32.634201,57.251923 32.36217,56.585095 32.11463,55.933619 31.848147,55.259118 31.629036,54.872803 31.42887,54.509511 31.202093,54.133963 31.003225,53.830027 30.830969,53.538358 30.636235,53.23055 c -0.187421,-0.306339 -0.35237,-0.596551 -0.539003,-0.905044 -0.252814,-0.350031 -0.483948,-0.681783 -0.741838,-1.02564 -0.19897,-0.251662 -0.371185,-0.491208 -0.566586,-0.745766 -0.318509,-0.475968 -0.613832,-0.936924 -0.931519,-1.415245 -0.263181,-0.340951 -0.504001,-0.664534 -0.768895,-1.002272 -0.334465,-0.411952 -0.644855,-0.809752 -0.974581,-1.23166 -0.315138,-0.340338 -0.610941,-0.656567 -0.930861,-0.988701 -0.401006,-0.384415 -0.777895,-0.752933 -1.180084,-1.132518 -0.427811,-0.454936 -0.830324,-0.898808 -1.25957,-1.353164 -0.447372,-0.434858 -0.868002,-0.859232 -1.312395,-1.301241 -0.602061,-0.577716 -1.180352,-1.137799 -1.78447,-1.710267 -0.434588,-0.452122 -0.843365,-0.89186 -1.252141,-1.331597 0.02524,-0.05146 0.05048,-0.10294 0.07569,-0.154411 0.183732,0.03316 0.377165,0.0402 0.549449,0.104171 0.620727,0.230482 1.234325,0.48016 1.901421,0.747315 1.244312,0.534201 2.437828,1.043673 3.658325,1.568425 0.244948,0.101228 0.46111,0.192122 0.681187,0.27227 0.905727,0.329857 1.812643,0.656451 2.741131,1.004865 0.441693,0.163255 0.859658,0.311216 1.281441,0.447354 0.736567,0.237743 1.475481,0.468214 2.240728,0.716582 1.407169,0.318786 2.782926,0.644179 4.170249,0.908975 0.285575,0.05451 0.761435,-0.01664 0.891153,-0.206471 C 36.822057,44.149707 36.471957,43.815725 36.21058,43.582897 35.414083,42.87339 34.59016,42.19466 33.761149,41.479948 32.826698,40.860927 31.908007,40.265905 30.980098,39.64431 30.061166,39.048597 29.151444,38.479464 28.225848,37.887102 27.151869,37.226162 26.093767,36.588443 25.035664,35.950726 24.140033,35.44526 23.244401,34.939799 22.320705,34.430402 21.727826,34.165414 21.162997,33.904358 20.568433,33.638756 20.170611,33.464789 19.80254,33.295365 19.403114,33.120853 m 36.543747,0.539012 c -2.660162,0.278442 -4.503082,2.08935 -4.689185,4.663225 0.07801,0.53368 0.156019,1.06736 0.231834,1.664811 0.278615,0.515928 0.557233,1.031854 0.857293,1.598388 0.488542,0.398035 0.977089,0.796069 1.502809,1.24237 0.651787,0.346458 1.342979,0.551394 2.157386,0.598406 0.454162,-0.04646 0.919235,-0.04559 1.360661,-0.147326 2.337459,-0.538722 3.993052,-2.701384 3.823658,-5.013936 -0.18934,-0.647291 -0.378674,-1.29458 -0.574706,-2.000434 -0.440705,-0.512257 -0.881415,-1.024516 -1.356923,-1.58456 -0.458606,-0.23745 -0.917218,-0.4749 -1.423698,-0.755958 -0.606381,-0.08556 -1.212769,-0.171095 -1.889129,-0.264986 m 11.873598,39.420049 c -0.47894,-0.814345 -0.957875,-1.628704 -1.455274,-2.496237 -0.103089,-0.14841 -0.1889,-0.313299 -0.312164,-0.442453 -0.629382,-0.659428 -1.268431,-1.309633 -1.936731,-2.007367 -1.021464,-0.607061 -2.042926,-1.214123 -3.112747,-1.85164 -0.599773,-0.279165 -1.188515,-0.586632 -1.803655,-0.826382 -0.343035,-0.1337 -0.53974,-0.303656 -0.507527,-0.75714 6.64e-4,-1.480351 0.0014,-2.960703 0.0173,-4.518304 -0.02895,-1.396674 -0.05791,-2.793349 -0.06912,-4.267055 -0.0065,-0.425995 -0.03485,-0.853044 -0.01446,-1.277747 0.03058,-0.636972 0.175647,-1.220875 0.953513,-1.416977 0.04127,-0.02101 0.08252,-0.04201 0.180866,-0.06741 0.03516,-0.01455 0.07033,-0.02912 0.161577,-0.03666 0.08414,-0.04009 0.16828,-0.08019 0.310596,-0.106629 0.184651,-0.06807 0.369308,-0.136119 0.618605,-0.204601 1.177874,-0.335157 2.355755,-0.670316 3.600027,-1.005813 0.88406,-0.196275 1.776825,-0.360732 2.649343,-0.599222 0.658673,-0.180039 1.395445,-0.223663 1.875732,-0.821382 0.270529,-0.33667 0.552131,-0.666982 0.793883,-1.023776 0.890441,-1.31418 1.769263,-2.636279 2.645423,-3.960052 0.195662,-0.295626 0.362774,-0.610149 0.546817,-0.922385 -0.26748,-0.212889 -0.484057,-0.385266 -0.731607,-0.604014 -0.50646,-0.40348 -1.018312,-0.800447 -1.516716,-1.213644 -0.199498,-0.16539 -0.339893,-0.181751 -0.520229,0.03183 -0.984746,1.166294 -1.961028,2.340699 -2.979538,3.477076 -0.46613,0.520072 -1.022296,0.959445 -1.602165,1.433098 -0.939161,0.125011 -1.878326,0.25002 -2.895019,0.362287 -0.78307,0.0055 -1.566148,0.01107 -2.426929,0.0052 -0.838874,0.0039 -1.677744,0.0077 -2.594336,6.7e-4 -1.396399,0.0018 -2.792802,0.0038 -4.266846,-0.0067 -0.846802,0.03107 -1.693752,0.05865 -2.540381,0.0939 -2.050489,0.08533 -3.434774,1.489622 -3.765769,3.049664 -0.228978,1.079233 -0.271067,2.198112 -0.417342,3.366095 -0.148126,1.509278 -0.29625,3.018553 -0.4658,4.588121 -0.118552,0.847339 -0.237105,1.694677 -0.387191,2.590996 -0.01204,0.09583 -0.02407,0.191658 -0.0692,0.3433 -0.0086,0.178676 -0.01719,0.357346 -0.04183,0.611653 0.0239,0.446339 0.04781,0.892683 0.06603,1.400363 0.282566,0.383506 0.493982,0.871522 0.865465,1.124405 0.478266,0.325577 1.084832,0.462678 1.679296,0.721815 1.188113,0.340901 2.376226,0.681795 3.61486,1.057656 0.997717,0.360154 1.99544,0.720304 3.03596,1.124143 1.050622,0.458879 2.101244,0.917755 3.193354,1.419848 0.998708,0.606964 1.997417,1.213933 3.013844,1.870691 0.334879,0.475881 0.686513,0.941072 0.999173,1.431135 0.237301,0.371935 0.424981,0.775535 0.6405,1.228954 0.344797,0.89371 0.68959,1.787413 1.035285,2.74486 0.04554,0.363897 0.26966,0.455495 0.609727,0.453601 1.29164,-0.0071 2.583386,0.0075 3.875106,0.01008 0.14774,2.5e-4 0.295531,-0.02469 0.475988,-0.0408 -0.124272,-1.421688 -0.444472,-2.745493 -1.025703,-4.067026 M 48.947196,69.651656 c -1.150644,-0.31048 -2.301287,-0.620963 -3.487672,-0.941086 -0.117191,0.511448 -0.231879,0.981925 -0.331995,1.455488 -0.179495,0.849021 -0.428654,1.670017 -1.231104,2.142995 -0.897001,0.528678 -1.815174,1.022624 -2.736022,1.509182 -0.447261,0.236317 -0.921637,0.421328 -1.42501,0.648158 0.552301,0.906322 1.071667,1.758591 1.605462,2.663195 0.129375,0.214205 0.280489,0.418553 0.383082,0.644897 0.157951,0.348477 0.386811,0.391657 0.704073,0.234577 1.105999,-0.547614 2.23508,-1.052934 3.315076,-1.64756 1.128696,-0.621425 2.167538,-1.388003 2.83173,-2.530249 0.437542,-0.752449 0.808758,-1.544554 1.188032,-2.329352 0.186769,-0.386469 0.342961,-0.7909 0.470258,-1.20048 0.02885,-0.09283 -0.09356,-0.315592 -0.1914,-0.349833 -0.337977,-0.118294 -0.695855,-0.179732 -1.09451,-0.299932 z"
       id="path79"
       style="stroke-width:0.0836807" /></g></svg>
