<?xml version="1.0" encoding="UTF-8" standalone="no"?>
<!-- Created with Inkscape (http://www.inkscape.org/) -->

<svg
   width="100mm"
   height="100mm"
   viewBox="0 0 100 100"
   version="1.1"
   id="svg1"
   xml:space="preserve"
   inkscape:version="1.3.2 (091e20e, 2023-11-25, custom)"
   sodipodi:docname="Homing.svg"
   xmlns:inkscape="http://www.inkscape.org/namespaces/inkscape"
   xmlns:sodipodi="http://sodipodi.sourceforge.net/DTD/sodipodi-0.dtd"
   xmlns="http://www.w3.org/2000/svg"
   xmlns:svg="http://www.w3.org/2000/svg"><sodipodi:namedview
     id="namedview1"
     pagecolor="#ffffff"
     bordercolor="#000000"
     borderopacity="0.59215686"
     inkscape:showpageshadow="2"
     inkscape:pageopacity="0.0"
     inkscape:pagecheckerboard="false"
     inkscape:deskcolor="#d1d1d1"
     inkscape:document-units="mm"
     inkscape:zoom="0.93974428"
     inkscape:cx="255.92069"
     inkscape:cy="196.33001"
     inkscape:window-width="1920"
     inkscape:window-height="1009"
     inkscape:window-x="1912"
     inkscape:window-y="-8"
     inkscape:window-maximized="1"
     inkscape:current-layer="layer1" /><defs
     id="defs1"><inkscape:path-effect
       effect="fillet_chamfer"
       id="path-effect1"
       is_visible="true"
       lpeversion="1"
       nodesatellites_param="F,0,0,1,0,13.229167,0,1 @ F,0,0,1,0,13.229167,0,1 @ F,0,0,1,0,13.229167,0,1 @ F,0,0,1,0,13.229167,0,1"
       radius="50"
       unit="px"
       method="auto"
       mode="F"
       chamfer_steps="1"
       flexible="false"
       use_knot_distance="true"
       apply_no_radius="true"
       apply_with_radius="true"
       only_selected="false"
       hide_knots="false" /></defs><g
     inkscape:label="Layer 1"
     inkscape:groupmode="layer"
     id="layer1"><path
       style="opacity:1;fill:#2392f7;fill-opacity:1;stroke-width:0.264999"
       id="rect1"
       width="85.009148"
       height="86.00457"
       x="7.7643018"
       y="6.7688785"
       inkscape:path-effect="#path-effect1"
       sodipodi:type="rect"
       d="M 20.993469,6.7688785 H 79.544282 A 13.229167,13.229167 45 0 1 92.773449,19.998045 V 79.544281 A 13.229167,13.229167 135 0 1 79.544282,92.773448 H 20.993469 A 13.229167,13.229167 45 0 1 7.7643018,79.544281 V 19.998045 A 13.229167,13.229167 135 0 1 20.993469,6.7688785 Z"
       transform="translate(-0.14077411)" /><path
       fill="#feffff"
       opacity="1"
       stroke="none"
       d="m 51.605983,24.034527 c 2.279817,-2.467238 4.537846,-4.912573 6.796895,-7.356964 0.45117,-0.488186 0.91034,-0.505439 1.363253,-0.06923 1.356203,1.306178 2.720556,2.603951 4.069047,3.918018 0.203039,0.197859 0.391899,0.444852 0.491427,0.705703 0.12771,0.334702 -0.07469,0.608915 -0.318888,0.847486 -1.618499,1.581234 -3.232155,3.167428 -4.848911,4.750452 -0.112372,0.11003 -0.237047,0.207498 -0.356005,0.310807 0.01406,0.03472 0.02811,0.06943 0.04217,0.104153 0.399179,0 0.798477,0.0065 1.197506,-9.73e-4 3.606895,-0.06848 7.015481,0.771204 10.180784,2.450124 6.403191,3.396337 10.374077,8.671945 11.808601,15.791304 0.257219,1.276515 0.296876,2.602467 0.366928,3.909349 0.05774,1.077252 -0.0034,2.160317 0.01444,3.240381 0.07039,4.304889 -1.069649,8.278558 -3.342527,11.913532 -3.397573,5.433709 -8.259505,8.813407 -14.520688,10.183277 -1.413795,0.309335 -2.838449,0.442393 -4.288261,0.438509 -6.70104,-0.01786 -13.402298,-0.03295 -20.103178,0.0044 -2.804828,0.01545 -5.501446,-0.473201 -8.080219,-1.527119 -6.74721,-2.757548 -11.197477,-7.654025 -13.354048,-14.609673 -0.614314,-1.981359 -0.954652,-4.018851 -0.88287,-6.113304 0.04149,-1.210327 0.02308,-2.423476 0.0043,-3.634929 -0.04246,-2.751923 0.552874,-5.375931 1.544237,-7.92506 1.317212,-3.386993 3.384978,-6.257208 6.108105,-8.634236 3.048878,-2.661367 6.596723,-4.344495 10.572801,-5.128655 1.58488,-0.312572 3.180703,-0.402079 4.789318,-0.353865 0.583161,0.01747 0.636192,0.06104 0.637136,0.625381 0.004,2.481866 0.0045,4.963745 -1.75e-4,7.445608 -0.0012,0.615069 -0.08754,0.689746 -0.7287,0.685866 -3.536223,-0.02138 -6.696938,1.028686 -9.377119,3.364698 -3.122491,2.721525 -4.692466,6.194289 -4.768426,10.319375 -0.03003,1.63062 -0.02621,3.277884 0.164734,4.893628 0.640174,5.417091 4.847101,10.089633 10.205182,11.367727 1.152988,0.275027 2.362973,0.425194 3.547991,0.432846 6.394238,0.04126 12.788883,0.02161 19.183386,0.01893 6.686778,-0.0028 12.219528,-4.463923 13.630713,-11.004101 0.137783,-0.638538 0.227216,-1.297506 0.246929,-1.949777 0.08372,-2.769788 0.273835,-5.562278 -0.74308,-8.224196 -1.955635,-5.119601 -5.643073,-8.168481 -11.063199,-9.051496 -1.02884,-0.167616 -2.087176,-0.154173 -3.131905,-0.22427 -0.02862,0.05114 -0.0572,0.102286 -0.08581,0.153431 0.129123,0.101931 0.264577,0.196842 0.386412,0.306836 1.863511,1.682479 3.725395,3.366754 5.58727,5.051042 0.446961,0.404332 0.473025,0.903725 0.0672,1.341178 -1.151355,1.24108 -2.303802,2.481142 -3.4568,3.720691 -0.408288,0.438925 -0.89604,0.454897 -1.298977,0.06179 -1.430939,-1.396009 -2.858096,-2.796045 -4.301197,-4.179411 -3.34027,-3.201994 -6.690088,-6.394027 -10.033648,-9.592588 -0.905363,-0.866097 -0.957923,-1.074927 -0.134031,-2.024283 1.212923,-1.397642 2.496287,-2.734203 3.751379,-4.095179 0.811386,-0.879837 1.625876,-1.756809 2.460406,-2.657301 z"
       id="path3"
       style="stroke-width:0.0876002" /></g></svg>
