<?xml version="1.0" encoding="UTF-8" standalone="no"?>
<!-- Created with Inkscape (http://www.inkscape.org/) -->

<svg
   width="100mm"
   height="100mm"
   viewBox="0 0 100 100"
   version="1.1"
   id="svg1"
   xml:space="preserve"
   inkscape:version="1.3.2 (091e20e, 2023-11-25, custom)"
   sodipodi:docname="Power Crush.svg"
   xmlns:inkscape="http://www.inkscape.org/namespaces/inkscape"
   xmlns:sodipodi="http://sodipodi.sourceforge.net/DTD/sodipodi-0.dtd"
   xmlns="http://www.w3.org/2000/svg"
   xmlns:svg="http://www.w3.org/2000/svg"><sodipodi:namedview
     id="namedview1"
     pagecolor="#ffffff"
     bordercolor="#000000"
     borderopacity="0.59215686"
     inkscape:showpageshadow="2"
     inkscape:pageopacity="0.0"
     inkscape:pagecheckerboard="false"
     inkscape:deskcolor="#d1d1d1"
     inkscape:document-units="mm"
     inkscape:zoom="1.3289991"
     inkscape:cx="387.50968"
     inkscape:cy="322.4231"
     inkscape:window-width="1920"
     inkscape:window-height="1009"
     inkscape:window-x="1912"
     inkscape:window-y="-8"
     inkscape:window-maximized="1"
     inkscape:current-layer="layer1" /><defs
     id="defs1"><inkscape:path-effect
       effect="fillet_chamfer"
       id="path-effect1"
       is_visible="true"
       lpeversion="1"
       nodesatellites_param="F,0,0,1,0,13.229167,0,1 @ F,0,0,1,0,13.229167,0,1 @ F,0,0,1,0,13.229167,0,1 @ F,0,0,1,0,13.229167,0,1"
       radius="50"
       unit="px"
       method="auto"
       mode="F"
       chamfer_steps="1"
       flexible="false"
       use_knot_distance="true"
       apply_no_radius="true"
       apply_with_radius="true"
       only_selected="false"
       hide_knots="false" /></defs><g
     inkscape:label="Layer 1"
     inkscape:groupmode="layer"
     id="layer1"><path
       style="opacity:1;fill:#ff0000;fill-opacity:1;stroke-width:0.264999"
       id="rect1"
       width="85.009148"
       height="86.00457"
       x="7.7643018"
       y="6.7688785"
       inkscape:path-effect="#path-effect1"
       sodipodi:type="rect"
       d="M 20.993469,6.7688785 H 79.544282 A 13.229167,13.229167 45 0 1 92.773449,19.998045 V 79.544281 A 13.229167,13.229167 135 0 1 79.544282,92.773448 H 20.993469 A 13.229167,13.229167 45 0 1 7.7643018,79.544281 V 19.998045 A 13.229167,13.229167 135 0 1 20.993469,6.7688785 Z" /><path
       fill="#ffffff"
       opacity="1"
       stroke="none"
       d="m 35.241165,17.467238 c 15.224972,3e-6 30.408425,0.0044 45.591864,-0.0083 1.190811,-9.03e-4 2.343163,1.158205 2.341172,2.323883 -0.01901,11.183343 -0.02967,22.36678 -0.0022,33.550089 0.01064,4.365491 -1.381551,8.199397 -4.057099,11.615819 -2.292518,2.927328 -4.809497,5.647502 -7.674285,8.00879 -2.15034,1.772404 -4.402991,3.431453 -6.69427,5.019506 -3.24389,2.24829 -6.492018,4.494686 -9.935511,6.443209 -2.114795,1.196663 -4.359639,1.474793 -6.655378,0.950573 -1.14401,-0.26126 -2.239328,-0.873406 -3.266131,-1.480077 -1.804866,-1.066245 -3.550105,-2.234963 -5.301606,-3.389088 -1.913827,-1.261136 -3.840397,-2.507275 -5.699789,-3.845566 -2.287352,-1.646319 -4.56083,-3.320367 -6.591773,-5.289131 -1.896164,-1.838105 -3.721497,-3.740835 -5.391621,-5.792723 -1.523389,-1.871601 -2.796809,-3.874546 -3.536354,-6.187047 -0.608437,-1.902521 -1.01255,-3.8191 -1.00452,-5.851402 0.04419,-11.183259 0.03482,-22.366817 0.0032,-33.550157 -0.0039,-1.330806 1.181334,-2.550491 2.55268,-2.537452 5.092985,0.04843 10.186711,0.01926 15.321684,0.01918 m 5.106787,55.068239 c 0.935786,0.613074 1.86882,1.230404 2.807915,1.838369 2.132854,1.380806 4.28665,2.730433 6.391492,4.152594 0.570255,0.385306 0.933988,0.342132 1.479889,-0.02042 2.564988,-1.70351 5.161684,-3.359335 7.749794,-5.027932 2.792011,-1.80006 5.459096,-3.774988 7.950917,-5.965603 2.336992,-2.054517 4.557816,-4.235906 6.589687,-6.60535 1.139426,-1.328736 1.93252,-2.829044 2.460834,-4.474055 0.187654,-0.584296 0.312455,-1.21751 0.3136,-1.828677 0.01829,-9.771184 0.01211,-19.542415 0.01094,-29.313637 -1.68e-4,-1.103653 -0.646766,-1.759837 -1.743539,-1.759907 -16.068602,-9.03e-4 -32.1372,-9.03e-4 -48.205801,0.0022 -0.176543,3.4e-5 -0.364215,0.01406 -0.527734,0.07362 -0.808908,0.294595 -1.190435,0.840598 -1.188921,1.949036 0.01273,9.314479 0.0065,18.628983 0.0088,27.94348 1.65e-4,0.608391 -0.05558,1.231268 0.05198,1.822432 0.321552,1.767615 1.036366,3.390255 2.126982,4.814058 1.399062,1.826487 3.031083,3.445266 4.679457,5.047051 1.91695,1.862778 3.938061,3.601188 6.079539,5.199081 0.962771,0.718376 1.94299,1.413377 2.964045,2.153599 z"
       id="path3"
       style="stroke-width:0.0830526" /><path
       fill="#fffefe"
       opacity="1"
       stroke="none"
       d="m 41.725622,55.090307 c 0,-3.748908 0,-7.456287 0,-11.21213 -0.171186,0 -0.31813,-1.65e-4 -0.465075,2.6e-5 -2.671296,0.004 -5.34267,0.01905 -8.013824,0.0013 -0.472379,-0.0032 -0.968839,-0.07829 -1.406085,-0.245772 -0.250388,-0.09591 -0.48596,-0.41436 -0.58674,-0.685248 -0.441293,-1.186234 -0.43218,-2.442983 -0.231977,-3.651195 0.302328,-1.824504 0.676885,-3.649046 1.195864,-5.422319 0.534494,-1.826297 1.283001,-3.589678 1.928501,-5.383959 0.171217,-0.475921 0.512813,-0.653988 0.987711,-0.653106 1.314717,0.0025 2.62948,-0.0022 3.944134,0.0075 0.546042,0.0042 0.686411,0.159799 0.546281,0.691323 -0.158081,0.599609 -0.3885,1.18001 -0.583775,1.769984 -0.343,1.036292 -0.688221,2.071889 -1.023246,3.110763 -0.394421,1.223069 -0.790362,2.445883 -1.161693,3.676034 -0.131282,0.434909 -0.217101,0.887706 -0.2782,1.338494 -0.06535,0.482057 0.165927,0.933167 0.786602,0.914141 0.565293,-0.01734 1.132529,0.04442 1.698918,0.04469 7.599337,0.0036 15.198669,0.0035 22.798004,-1.66e-4 0.483299,-2.49e-4 0.967027,-0.02973 1.449738,-0.05905 0.424748,-0.02579 0.646935,-0.220383 0.661542,-0.642321 0.01084,-0.313132 -0.01804,-0.642197 -0.105969,-0.94163 -0.354278,-1.206489 -0.727047,-2.407888 -1.114088,-3.604342 -0.565412,-1.747832 -1.149129,-3.489746 -1.724362,-5.234404 -0.03033,-0.09193 -0.05866,-0.184927 -0.08059,-0.279136 -0.145138,-0.623532 -0.03467,-0.77951 0.607919,-0.785146 1.273115,-0.01116 2.546414,-8.4e-5 3.819546,-0.01016 0.553174,-0.0044 0.874201,0.237559 1.088472,0.759996 1.26279,3.07899 2.326787,6.219123 2.928675,9.498264 0.286011,1.558226 0.401503,3.13263 -0.02382,4.691592 -0.193543,0.709427 -0.601687,1.042141 -1.339479,1.075213 -0.801296,0.03591 -1.604792,0.02801 -2.407341,0.02915 -2.241757,0.0032 -4.483522,9.9e-4 -6.786686,9.9e-4 0,0.131074 0,0.262369 0,0.39366 0,4.235696 -0.0135,8.471489 0.01664,12.706968 0.004,0.546372 0.181506,1.110216 0.371655,1.632074 0.268566,0.737057 0.688203,1.422201 0.923337,2.167373 0.221662,0.70251 0.389376,1.451949 0.404341,2.184338 0.05115,2.50441 0.027,5.010408 0.02627,7.515796 -1.67e-4,0.697489 -0.157468,0.866125 -0.852124,0.870328 -1.716321,0.01038 -3.432755,0.0088 -5.149109,0.0027 -0.581755,-0.0021 -0.721195,-0.152846 -0.721649,-0.757114 -0.0022,-3.086778 0.01366,-6.173644 -0.007,-9.260284 -0.0067,-1.003449 -0.127762,-2.009483 -0.921693,-2.748655 -0.199775,-0.185992 -0.522322,-0.327403 -0.792859,-0.335137 -1.23094,-0.03524 -2.464145,-0.03732 -3.694898,9.89e-4 -0.281562,0.0088 -0.614623,0.162934 -0.824304,0.357565 -0.759903,0.705331 -0.890193,1.675405 -0.898752,2.632781 -0.02734,3.058817 -0.0065,6.118057 -0.006,9.177132 1.63e-4,0.839464 -0.0935,0.936532 -0.921873,0.937363 -1.647182,0.0017 -3.294416,0.0044 -4.94154,-0.0067 -0.702268,-0.0047 -0.860258,-0.170232 -0.861417,-0.861457 -0.0041,-2.353157 0.01736,-4.706532 -0.0088,-7.059403 -0.01548,-1.391394 0.309251,-2.688367 0.971317,-3.893796 0.66197,-1.205258 0.883393,-2.481329 0.781569,-3.833734 -0.0145,-0.192542 -0.0019,-0.387106 -0.0019,-0.622265 z"
       id="path5"
       style="stroke-width:0.0830526" /><path
       fill="#fffefe"
       opacity="1"
       stroke="none"
       d="m 53.09013,25.434275 c 2.383233,1.290892 3.654058,3.652865 3.388806,6.260847 -0.252217,2.479881 -2.036398,4.589621 -4.487761,5.306666 -3.905509,1.142399 -7.880315,-1.802891 -7.965507,-5.826447 -0.09815,-4.63523 4.688439,-7.861857 9.064462,-5.741066 z"
       id="path6"
       style="stroke-width:0.0830526" /></g></svg>
