<?xml version="1.0" encoding="UTF-8" standalone="no"?>
<!-- Created with Inkscape (http://www.inkscape.org/) -->

<svg
   width="100mm"
   height="100mm"
   viewBox="0 0 100 100"
   version="1.1"
   id="svg1"
   xml:space="preserve"
   inkscape:version="1.3.2 (091e20e, 2023-11-25, custom)"
   sodipodi:docname="Removes Recoverable.svg"
   xmlns:inkscape="http://www.inkscape.org/namespaces/inkscape"
   xmlns:sodipodi="http://sodipodi.sourceforge.net/DTD/sodipodi-0.dtd"
   xmlns:xlink="http://www.w3.org/1999/xlink"
   xmlns="http://www.w3.org/2000/svg"
   xmlns:svg="http://www.w3.org/2000/svg"><sodipodi:namedview
     id="namedview1"
     pagecolor="#ffffff"
     bordercolor="#000000"
     borderopacity="0.59215686"
     inkscape:showpageshadow="2"
     inkscape:pageopacity="0.0"
     inkscape:pagecheckerboard="false"
     inkscape:deskcolor="#d1d1d1"
     inkscape:document-units="mm"
     inkscape:zoom="1.8794885"
     inkscape:cx="180.36822"
     inkscape:cy="162.54422"
     inkscape:window-width="1920"
     inkscape:window-height="1009"
     inkscape:window-x="1912"
     inkscape:window-y="-8"
     inkscape:window-maximized="1"
     inkscape:current-layer="layer1" /><defs
     id="defs1"><linearGradient
       id="linearGradient16"
       inkscape:collect="always"><stop
         style="stop-color:#ffff00;stop-opacity:1"
         offset="0"
         id="stop16" /><stop
         style="stop-color:#ff0000;stop-opacity:1"
         offset="1"
         id="stop17" /></linearGradient><inkscape:path-effect
       effect="fillet_chamfer"
       id="path-effect1"
       is_visible="true"
       lpeversion="1"
       nodesatellites_param="F,0,0,1,0,13.229167,0,1 @ F,0,0,1,0,13.229167,0,1 @ F,0,0,1,0,13.229167,0,1 @ F,0,0,1,0,13.229167,0,1"
       radius="50"
       unit="px"
       method="auto"
       mode="F"
       chamfer_steps="1"
       flexible="false"
       use_knot_distance="true"
       apply_no_radius="true"
       apply_with_radius="true"
       only_selected="false"
       hide_knots="false" /><linearGradient
       inkscape:collect="always"
       xlink:href="#linearGradient16"
       id="linearGradient17"
       x1="10.228206"
       y1="0.57552832"
       x2="99.949615"
       y2="116.4202"
       gradientUnits="userSpaceOnUse" /></defs><g
     inkscape:label="Layer 1"
     inkscape:groupmode="layer"
     id="layer1"><g
       id="g4"
       style="fill:url(#linearGradient17);fill-opacity:1"><g
         id="g3"
         style="fill:url(#linearGradient17);fill-opacity:1"><g
           id="g2"
           style="fill:url(#linearGradient17);fill-opacity:1"><g
             id="g1"
             style="fill:url(#linearGradient17);fill-opacity:1"><path
               style="opacity:1;fill:url(#linearGradient17);fill-opacity:1;stroke-width:0.264999"
               id="rect1"
               width="85.009148"
               height="86.00457"
               x="7.7643018"
               y="6.7688785"
               inkscape:path-effect="#path-effect1"
               sodipodi:type="rect"
               d="M 20.993469,6.7688785 H 79.544282 A 13.229167,13.229167 45 0 1 92.773449,19.998045 V 79.544281 A 13.229167,13.229167 135 0 1 79.544282,92.773448 H 20.993469 A 13.229167,13.229167 45 0 1 7.7643018,79.544281 V 19.998045 A 13.229167,13.229167 135 0 1 20.993469,6.7688785 Z"
               transform="translate(-0.14077411)" /></g></g></g></g><path
       fill="#fffefe"
       opacity="1"
       stroke="none"
       d="m 62.196007,63.973601 c 0.101776,-0.307334 0.226103,-0.575482 0.296272,-0.857115 0.07512,-0.301543 0.247927,-0.409298 0.540892,-0.40735 0.575614,0.0038 1.151316,-0.0059 1.752585,-0.03286 0.499059,-0.741927 0.970928,-1.461968 1.446946,-2.179251 0.140646,-0.211924 0.29304,-0.416033 0.488572,-0.643022 0.110601,-0.02401 0.172674,-0.02874 0.234744,-0.03346 1.339229,0.145878 2.678459,0.291757 4.093137,0.445854 -0.09303,0.174887 -0.14855,0.2951 -0.217698,0.406877 -1.180825,1.90867 -2.370311,3.812051 -3.538674,5.728304 -0.196188,0.321783 -0.427558,0.440594 -0.793112,0.437658 -1.549991,-0.01247 -3.100148,-0.0031 -4.650246,-0.0044 -0.479927,-4.19e-4 -0.537012,-0.07434 -0.395822,-0.521048 0.243411,-0.770151 0.493718,-1.538122 0.742404,-2.340261 z"
       id="path36"
       style="stroke-width:0.0853296" /><path
       fill="#fffdfd"
       opacity="1"
       stroke="none"
       d="m 68.446016,57.361375 c -0.0055,-0.140634 -0.01253,-0.304304 0.05949,-0.417933 1.410007,-2.225002 2.833346,-4.441558 4.24115,-6.667939 0.171492,-0.271201 0.379904,-0.353613 0.673401,-0.315808 0.238541,0.03073 0.478098,0.05349 0.754304,0.07357 0.72434,0.08222 1.411965,0.167816 2.09863,0.260488 0.270597,0.03651 0.539064,0.0888 0.880177,0.145894 -0.12465,0.220558 -0.194481,0.354865 -0.273982,0.483175 -1.343203,2.167847 -2.695009,4.330429 -4.024149,6.506852 -0.210912,0.345365 -0.46127,0.464884 -0.838248,0.412773 -1.178101,-0.162883 -2.356868,-0.320901 -3.570775,-0.481067 z"
       id="path37"
       style="stroke-width:0.0853296" /><path
       fill="#fffdfd"
       opacity="1"
       stroke="none"
       d="M 79.560992,39.776425 C 79.75706,39.37587 79.99394,38.98061 80.2126,38.575516 c 0.07547,-0.139796 0.10558,-0.304076 0.177857,-0.496845 0.121583,-0.145442 0.221719,-0.251208 0.372409,-0.410377 -0.655511,0 -1.243822,0 -1.832131,0 -0.01175,-0.0081 -0.02348,-0.01626 -0.04977,-0.04995 -0.01172,-0.05378 -0.01599,-0.08088 -0.02735,-0.10689 0.682172,-1.131464 1.361402,-2.264736 2.053087,-3.390349 0.04661,-0.07585 0.187278,-0.09389 0.351483,-0.141937 0.377775,-0.0066 0.688261,-0.01091 0.998756,-0.01363 1.565779,-0.01381 3.131561,-0.02721 4.697343,-0.04078 0.09995,0.04129 0.199915,0.08257 0.340656,0.140696 -0.08229,0.154857 -0.145951,0.29301 -0.225393,0.421399 -1.118728,1.807944 -2.243486,3.612172 -3.355444,5.424262 -0.153875,0.250763 -0.323806,0.352033 -0.621462,0.311588 -1.164642,-0.158247 -2.331775,-0.298138 -3.531645,-0.446282 z"
       id="path38"
       style="stroke-width:0.0853296" /><path
       fill="#fffdfd"
       opacity="1"
       stroke="none"
       d="m 75.101238,48.148046 c -0.294941,-0.04619 -0.553516,-0.0977 -0.865278,-0.159805 0.09768,-0.167269 0.169117,-0.299518 0.249665,-0.425961 0.951038,-1.492902 1.903561,-2.984864 2.855422,-4.477237 0.231792,-0.363403 0.494151,-0.711915 0.683093,-1.09644 0.130074,-0.264713 0.293316,-0.345513 0.590432,-0.317087 0.917925,0.106859 1.802103,0.218492 2.685598,0.335255 0.304262,0.04021 0.606842,0.09323 0.981022,0.151419 -0.118854,0.213827 -0.198413,0.371648 -0.291049,0.521377 -1.095704,1.771023 -2.210365,3.530681 -3.278669,5.318053 -0.269888,0.451541 -0.577005,0.52897 -1.045347,0.457287 -0.839113,-0.128448 -1.685296,-0.210647 -2.564889,-0.306861 z"
       id="path39"
       style="stroke-width:0.0853296" /><path
       fill="#fffefe"
       opacity="1"
       stroke="none"
       d="m 60.035717,62.713135 c 0.01578,0.0085 0.03154,0.01709 0.08442,0.04756 0.04954,0.02993 0.06196,0.03795 0.07437,0.04597 -0.418084,1.151378 -0.836163,2.302757 -1.253806,3.486014 -0.123477,0.454848 -0.421809,0.569999 -0.835538,0.550322 -0.491207,-0.02336 -0.984428,-0.0042 -1.516363,0.0023 -1.421612,0.0059 -2.803641,0.0059 -4.259824,0.0059 0.09797,-0.272919 0.160983,-0.448448 0.254293,-0.674052 0.330072,-0.834237 0.629837,-1.618397 0.949318,-2.424251 0.05869,-0.127602 0.09625,-0.234046 0.136796,-0.339353 0.274306,-0.7124 0.274511,-0.713682 1.023073,-0.712322 1.781089,0.0032 3.562168,0.0078 5.343251,0.01194 z"
       id="path40"
       style="stroke-width:0.0853296" /><path
       fill="#fffefe"
       opacity="1"
       stroke="none"
       d="m 62.99462,19.813107 c 0.838108,-0.0036 1.636736,-10e-4 2.47439,-0.0077 0.289711,0.0037 0.540386,0.01664 0.908863,0.03561 -0.344067,0.612509 -0.647835,1.153282 -0.97575,1.733929 -0.03324,0.06654 -0.04232,0.0932 -0.05143,0.119857 -0.01002,0.0109 -0.01994,0.02178 -0.05952,0.07124 -0.801776,1.367842 -1.573943,2.697134 -2.368516,4.044676 -3.356805,5.687209 -6.692779,11.355257 -10.02455,17.025765 -0.87016,1.480964 -1.727246,2.969606 -2.613407,4.471942 -0.847947,1.429693 -1.672832,2.84217 -2.497709,4.254644 -0.441452,0.744387 -0.882906,1.488774 -1.356179,2.280123 -0.402457,0.693265 -0.773105,1.339568 -1.16547,2.005577 -0.411651,0.687078 -0.801585,1.354443 -1.216325,2.037238 -0.592295,1.002855 -1.159801,1.990272 -1.727307,2.977688 -0.690372,1.166025 -1.380738,2.332053 -2.100461,3.544132 -0.752215,1.288191 -1.475086,2.53033 -2.22351,3.788517 -0.729697,1.230853 -1.43384,2.445661 -2.158735,3.679374 -0.443517,0.750594 -0.866279,1.482289 -1.289041,2.21399 -0.526128,0.882037 -1.062816,1.758028 -1.57305,2.649167 -0.197944,0.345704 -0.450416,0.51166 -0.852295,0.508114 -1.234114,-0.0109 -2.468403,0.0012 -3.702593,-0.004 -0.507322,-0.0021 -0.564175,-0.106186 -0.3108,-0.542698 0.575996,-0.992339 1.156691,-1.981954 1.743406,-3.002136 0.774437,-1.333859 1.541193,-2.638121 2.307271,-3.942779 0.14015,-0.238686 0.277504,-0.479014 0.420805,-0.749361 0.508605,-0.855293 1.014605,-1.678571 1.515548,-2.504919 0.207626,-0.342499 0.404423,-0.691556 0.636218,-1.083023 0.85626,-1.463217 1.682459,-2.881052 2.528808,-4.321161 0.954308,-1.623888 1.888473,-3.22549 2.840389,-4.837284 0.04012,-0.03027 0.04875,-0.05512 0.05862,-0.102969 0.02002,-0.03313 0.02507,-0.04804 0.05288,-0.07981 1.22761,-2.082783 2.432442,-4.148686 3.660535,-6.23127 0.627087,-1.042234 1.234053,-2.065951 1.834013,-3.093762 0.921028,-1.577858 1.837236,-3.158532 2.755492,-4.738007 0.04799,-0.06811 0.09591,-0.13622 0.163045,-0.240184 0.0405,-0.05397 0.04959,-0.07692 0.04662,-0.104716 0.822302,-1.390105 1.647408,-2.778552 2.466347,-4.170626 2.264356,-3.849011 4.526219,-7.69949 6.788806,-11.54954 0.251572,-0.428076 0.501472,-0.857135 0.758017,-1.315188 0.881552,-1.502407 1.760443,-2.973469 2.629908,-4.450082 0.1543,-0.262045 0.351457,-0.382494 0.658093,-0.36576 0.325445,0.01776 0.652684,0.0025 1.018626,-0.0046 z"
       id="path43"
       style="stroke-width:0.0853296" /><path
       fill="#fffdfd"
       opacity="1"
       stroke="none"
       d="m 45.082404,62.674279 c 1.512574,-6.78e-4 2.994393,0.0088 4.553635,0.01779 0.517301,-0.009 0.957181,-0.01755 1.413489,-0.0067 0.04936,0.02255 0.0823,0.02562 0.138463,0.04141 0.04081,0.01398 0.05846,0.01523 0.08542,0.03527 0.0094,0.01879 0.04616,0.039 0.04187,0.07576 -0.02926,0.131791 -0.05425,0.226838 -0.10087,0.341791 -0.39228,0.8626 -0.762882,1.705296 -1.150639,2.573843 -0.241216,0.384863 -0.465279,0.743872 -0.728633,1.097949 -2.397919,-0.0049 -4.756538,-0.0049 -7.115157,-0.0049 -0.02835,-0.0468 -0.05662,-0.09359 -0.08492,-0.140395 0.80281,-1.318636 1.605625,-2.637267 2.408434,-3.955904 0.169381,-0.02193 0.338753,-0.04389 0.538898,-0.07588 z"
       id="path45"
       style="stroke-width:0.0853296" /><path
       fill="#fffdfd"
       opacity="1"
       stroke="none"
       d="m 65.964033,37.667361 c -0.856318,0.0035 -1.682957,-0.0035 -2.58859,-0.01044 -0.479433,0.0039 -0.879872,0.0078 -1.319226,0.0059 -0.354292,-0.0031 -0.669666,-2.56e-4 -0.985038,0.0025 -0.159023,-0.0268 -0.318048,-0.05362 -0.562646,-0.09484 0.432652,-0.759849 0.825789,-1.452933 1.221813,-2.144365 0.133166,-0.232502 0.316417,-0.445976 0.402393,-0.693936 0.214266,-0.617945 0.657807,-0.795177 1.290486,-0.747697 1.063174,-0.0031 2.089283,0.001 3.154816,-0.0021 0.513852,-0.007 0.988278,-0.007 1.55585,-0.007 -0.131697,0.306707 -0.199069,0.503373 -0.296503,0.683802 -0.478404,0.885904 -0.957741,1.771505 -1.455369,2.646624 -0.08194,0.144099 -0.256535,0.235511 -0.417986,0.36149 z"
       id="path46"
       style="stroke-width:0.0853296" /><path
       fill="#fffefe"
       opacity="1"
       stroke="none"
       d="m 73.319371,33.978018 c 1.122458,-0.0025 2.205356,0.0013 3.327839,-10e-4 0.344069,-0.0063 0.648553,-0.0063 1.072264,-0.0063 -0.293878,0.531946 -0.532934,0.964668 -0.792948,1.436701 -0.04253,0.05806 -0.05089,0.08152 -0.04608,0.109694 -0.0099,0.01232 -0.01991,0.02465 -0.05791,0.07705 -0.342432,0.594933 -0.648163,1.154987 -0.976881,1.701209 -0.08828,0.146696 -0.24653,0.251279 -0.411179,0.370212 -1.909145,-0.0021 -3.779776,10e-4 -5.650407,0.004 -0.03799,-0.009 -0.07599,-0.01794 -0.145572,-0.05311 -0.03823,-0.05902 -0.04488,-0.09181 -0.05153,-0.124608 0.553937,-1.091115 1.099174,-2.186862 1.67376,-3.266995 0.0656,-0.12331 0.292414,-0.216248 0.44999,-0.225104 0.521674,-0.02933 1.045873,-0.0137 1.608658,-0.02174 z"
       id="path49"
       style="stroke-width:0.0853296" /><path
       fill="#ffffff"
       opacity="1"
       stroke="none"
       d="m 15.752514,33.93968 c -0.0023,-1.094101 0.0023,-2.148564 6.1e-5,-3.242671 -6.42e-4,-0.308979 0.0046,-0.5783 0.0086,-0.847646 0.008,-0.583425 0.05464,-0.639668 0.628783,-0.640978 1.830558,-0.0041 3.661133,-0.0015 5.491705,-0.0021 1.972453,-5.16e-4 3.944919,-0.0017 5.957023,-0.0083 2.174897,-0.002 4.310156,0.0021 6.485045,7.5e-5 1.606015,-0.002 3.172401,0.0021 4.778416,8e-6 1.406925,-0.002 2.774214,0.0021 4.181131,6.2e-5 1.150921,-0.0021 2.262214,0.0021 3.413129,-5e-6 0.866477,-0.0021 1.693326,0.0021 2.559803,2.6e-5 0.593403,-0.0059 1.147177,-0.0059 1.700959,-0.0059 0.01727,0.05284 0.03453,0.105696 0.05182,0.158542 -1.237668,2.02262 -2.475327,4.045243 -3.725526,6.094762 -0.01253,0.02691 -0.01751,0.03462 -0.03248,0.05627 -0.07206,0.126385 -0.129163,0.231121 -0.186275,0.335856 -1.024035,1.652046 -2.049638,3.303127 -3.071557,4.95648 -0.656361,1.06193 -1.30731,2.127206 -1.967209,3.220683 -0.02652,0.0492 -0.04654,0.06871 -0.07932,0.11813 -0.02789,0.04438 -0.03545,0.06205 -0.03568,0.08292 -1.038692,1.687381 -2.077376,3.374757 -3.146863,5.107819 -0.996542,1.630023 -1.962281,3.21436 -2.94814,4.820915 -0.981963,1.599757 -1.943811,3.177299 -2.927776,4.773401 -0.830219,1.348307 -1.638339,2.678052 -2.468266,4.025791 -0.793792,1.281347 -1.565775,2.544694 -2.337751,3.808041 -0.214281,0.433927 -0.609068,0.509205 -1.0339,0.510584 -1.232823,0.0039 -2.465662,0.0027 -3.738097,0.0092 -2.211079,10e-4 -4.382566,-0.0039 -6.554047,-0.0088 -0.141947,-3.55e-4 -0.283948,0.0023 -0.425834,-6.12e-4 -0.504931,-0.01044 -0.566605,-0.06922 -0.568148,-0.565141 -0.0031,-1.036211 -0.0023,-2.072439 -0.0095,-3.148259 -0.0023,-1.52072 0.0023,-3.001848 -6.1e-5,-4.522575 -0.0023,-1.207803 0.0023,-2.375998 1.5e-5,-3.583806 -0.0023,-1.150957 0.0023,-2.262295 8.4e-5,-3.413257 -0.0023,-1.349994 0.0015,-2.660369 -1.68e-4,-4.01037 -0.0023,-1.634443 0.0015,-3.229262 -9.1e-5,-4.863712 -0.0023,-1.66293 0.0023,-3.286229 -4.6e-5,-4.949165 -0.0023,-1.43539 0.0023,-2.831145 2.3e-5,-4.266542 z"
       id="path59"
       style="stroke-width:0.0853296" /></g></svg>
