<?xml version="1.0" encoding="UTF-8" standalone="no"?>
<!-- Created with Inkscape (http://www.inkscape.org/) -->

<svg
   width="100mm"
   height="100mm"
   viewBox="0 0 100 100"
   version="1.1"
   id="svg1"
   xml:space="preserve"
   inkscape:version="1.3.2 (091e20e, 2023-11-25, custom)"
   sodipodi:docname="Tornado.svg"
   xmlns:inkscape="http://www.inkscape.org/namespaces/inkscape"
   xmlns:sodipodi="http://sodipodi.sourceforge.net/DTD/sodipodi-0.dtd"
   xmlns="http://www.w3.org/2000/svg"
   xmlns:svg="http://www.w3.org/2000/svg"><sodipodi:namedview
     id="namedview1"
     pagecolor="#ffffff"
     bordercolor="#000000"
     borderopacity="0.59215686"
     inkscape:showpageshadow="2"
     inkscape:pageopacity="0.0"
     inkscape:pagecheckerboard="false"
     inkscape:deskcolor="#d1d1d1"
     inkscape:document-units="mm"
     inkscape:zoom="1.8794885"
     inkscape:cx="96.302797"
     inkscape:cy="177.44189"
     inkscape:window-width="1920"
     inkscape:window-height="1009"
     inkscape:window-x="-8"
     inkscape:window-y="-8"
     inkscape:window-maximized="1"
     inkscape:current-layer="layer1" /><defs
     id="defs1"><inkscape:path-effect
       effect="fillet_chamfer"
       id="path-effect1"
       is_visible="true"
       lpeversion="1"
       nodesatellites_param="F,0,0,1,0,13.229167,0,1 @ F,0,0,1,0,13.229167,0,1 @ F,0,0,1,0,13.229167,0,1 @ F,0,0,1,0,13.229167,0,1"
       radius="50"
       unit="px"
       method="auto"
       mode="F"
       chamfer_steps="1"
       flexible="false"
       use_knot_distance="true"
       apply_no_radius="true"
       apply_with_radius="true"
       only_selected="false"
       hide_knots="false" /></defs><g
     inkscape:label="Layer 1"
     inkscape:groupmode="layer"
     id="layer1"><path
       style="opacity:1;fill:#f84863;stroke-width:0.264999;fill-opacity:1"
       id="rect1"
       width="85.009148"
       height="86.00457"
       x="7.7643018"
       y="6.7688785"
       inkscape:path-effect="#path-effect1"
       sodipodi:type="rect"
       d="M 20.993469,6.7688785 H 79.544282 A 13.229167,13.229167 45 0 1 92.773449,19.998045 V 79.544281 A 13.229167,13.229167 135 0 1 79.544282,92.773448 H 20.993469 A 13.229167,13.229167 45 0 1 7.7643018,79.544281 V 19.998045 A 13.229167,13.229167 135 0 1 20.993469,6.7688785 Z"
       transform="translate(-0.14077411)" /><path
       fill="#fffefe"
       opacity="1"
       stroke="none"
       d="m 15.777594,33.310123 c 0.615625,-1.938574 1.166088,-3.863194 1.856026,-5.736446 0.825029,-2.240037 1.999477,-4.310687 3.546699,-6.136733 1.664366,-1.964301 3.597353,-3.603201 6.138121,-4.31348 2.424205,-0.677698 4.836399,-0.619654 7.181994,0.387759 3.041542,1.306318 5.124014,3.63749 6.810508,6.388967 0.198075,0.323159 0.384995,0.65315 0.577874,0.979507 0.01453,0.02458 0.0354,0.04542 0.06786,0.0863 0.615397,-0.118814 1.236734,-0.28197 1.868426,-0.353045 2.365516,-0.266158 4.657761,-0.02423 6.841902,1.006772 3.330819,1.572281 5.699183,4.123695 7.458409,7.290383 0.807872,1.454223 1.503219,2.963851 1.981923,4.565713 0.233913,0.782725 0.207818,0.851932 -0.549153,1.180459 -1.15173,0.499871 -2.296454,1.015979 -3.450439,1.510507 -0.238159,0.10207 -0.501277,0.181284 -0.757544,0.197522 -0.393949,0.02492 -0.481028,-0.318124 -0.587043,-0.603111 -0.33056,-0.888628 -0.60634,-1.800998 -0.98935,-2.666081 -0.991089,-2.238543 -2.332766,-4.22363 -4.404887,-5.613931 -1.429665,-0.959236 -2.998866,-1.425166 -4.736841,-1.168359 -0.139681,0.02065 -0.277529,0.05369 -0.427039,0.08312 0.272464,1.047125 0.592347,2.044185 0.785131,3.065244 0.415076,2.198346 0.8017,4.403516 1.132168,6.616023 0.446175,2.987197 0.473179,6.006681 0.329436,9.009228 -0.195811,4.090056 -1.070518,8.036091 -3.179082,11.619819 -0.551226,0.936859 -1.228561,1.777028 -2.08116,2.467992 -1.812164,1.468638 -3.926027,1.476135 -5.732403,0.0038 -1.505401,-1.22683 -2.435073,-2.859572 -3.182398,-4.605948 -1.153944,-2.696583 -1.738072,-5.534904 -2.026071,-8.442311 -0.277757,-2.803996 -0.261067,-5.606436 0.09925,-8.400264 0.461283,-3.576706 1.272897,-7.058761 3.31214,-10.105668 0.823359,-1.230204 1.850627,-2.323931 2.853883,-3.564849 -1.031409,-1.892418 -2.246961,-3.796176 -4.435315,-4.820999 -0.3002,-0.140586 -0.634236,-0.226298 -0.961915,-0.287851 -1.498608,-0.28149 -2.761639,0.257617 -3.884889,1.190067 -1.602134,1.329995 -2.629101,3.07759 -3.477157,4.939443 -1.347909,2.959243 -2.12524,6.08527 -2.634586,9.282802 -0.632207,3.968831 -0.836163,7.963361 -0.608724,11.975071 0.278344,4.909627 1.046558,9.722707 2.898078,14.317752 0.856579,2.125833 2.108114,3.996256 3.573806,5.740697 0.817553,0.973044 0.80232,1.204372 -0.302384,1.815261 -1.19969,0.663407 -2.451241,1.233752 -3.686075,1.832511 -0.45536,0.220793 -0.846822,0.07543 -1.185343,-0.274547 -1.560749,-1.613417 -2.697813,-3.51049 -3.628706,-5.530846 -1.495059,-3.244788 -2.439657,-6.657475 -3.034688,-10.176631 -0.378518,-2.238657 -0.719785,-4.480296 -0.77251,-6.752258 -0.05525,-2.3808 -0.138113,-4.764944 -0.0705,-7.143696 0.103836,-3.652672 0.636846,-7.259255 1.47257,-10.855927 m 24.546982,12.767387 c -0.110992,-3.987657 -0.525772,-7.934342 -1.551464,-11.882622 -0.154047,0.179726 -0.269435,0.276792 -0.337716,0.399962 -0.541956,0.977716 -1.13427,1.933249 -1.598333,2.947208 -0.958077,2.093359 -1.077647,4.366152 -1.224876,6.61386 -0.223879,3.417871 -0.0925,6.829397 0.53017,10.20266 0.185615,1.005537 0.546159,1.982745 0.877505,2.955581 0.140199,0.411631 0.412476,0.858617 0.890491,0.874053 0.492435,0.01586 0.696446,-0.467009 0.907075,-0.847809 0.118792,-0.214769 0.229593,-0.442509 0.29246,-0.678143 0.249371,-0.934735 0.535466,-1.864767 0.703986,-2.814985 0.450422,-2.539768 0.526487,-5.110011 0.510702,-7.769765 z"
       id="path3"
       style="stroke-width:0.0877324" /><path
       fill="#fffefe"
       opacity="1"
       stroke="none"
       d="m 54.379567,55.941862 c -0.509946,-2.559621 -0.654573,-5.103506 -0.452972,-7.667451 0.03313,-0.421364 0.0867,-0.841275 0.113436,-1.26296 0.02952,-0.465489 0.28243,-0.775162 0.721764,-0.7963 1.16607,-0.05607 2.335322,-0.07731 3.50251,-0.05956 0.341191,0.0047 0.480647,0.314292 0.494467,0.668166 0.04675,1.196735 0.05565,2.398652 0.180835,3.587883 0.317617,3.017774 1.121257,5.886928 2.793976,8.462986 0.05555,0.08553 0.107699,0.173694 0.168461,0.255401 0.524203,0.704982 1.438048,0.767846 1.999732,0.08978 0.143175,-0.172854 0.202642,-0.540531 0.122554,-0.75092 -0.331315,-0.870295 -0.70676,-1.726173 -1.109621,-2.566428 -1.790307,-3.734125 -2.792618,-7.633267 -2.563364,-11.806768 0.04972,-0.904977 0.372033,-1.571501 1.277032,-1.881769 0.808832,-0.277294 1.594826,-0.63334 2.417983,-0.853227 0.768173,-0.205206 1.173682,0.222256 1.2069,1.040543 0.06925,1.706151 0.07075,3.423752 0.28354,5.11355 0.430749,3.420598 1.53613,6.623056 3.457771,9.516425 0.791,1.190996 1.541615,2.410029 2.366582,3.576724 0.435498,0.615894 0.999617,1.139677 1.489681,1.718583 0.291333,0.344132 0.612347,0.352695 1.019715,0.234596 1.652373,-0.479046 3.301551,-0.977614 4.974281,-1.374793 1.031638,-0.244958 2.100724,-0.346642 3.158462,-0.462948 0.924074,-0.101598 1.756322,0.185636 2.364382,0.897417 0.584844,0.68461 1.140778,1.403706 1.62512,2.161519 0.442251,0.691944 0.268902,1.134673 -0.523627,1.358325 -0.595886,0.168154 -1.233449,0.201356 -1.855669,0.261396 -5.095667,0.491725 -9.886527,1.910743 -14.17787,4.766143 -2.863405,1.905268 -5.252167,4.287277 -6.765396,7.423274 -0.485172,1.005453 -0.781677,2.102205 -1.160543,3.158607 -0.21161,0.590045 -0.398278,1.189599 -0.626986,1.772781 -0.231362,0.58997 -0.805416,0.895368 -1.383055,0.650842 -0.884159,-0.374265 -1.742079,-0.816777 -2.586474,-1.275704 -0.350404,-0.190442 -0.41009,-0.574271 -0.358741,-0.966634 0.233285,-1.782466 0.786085,-3.470953 1.519673,-5.101815 0.704654,-1.566526 1.63433,-2.997102 2.676426,-4.361195 0.269972,-0.353384 0.491347,-0.771634 0.624698,-1.194847 C 61.554871,69.703338 61.31312,69.163648 60.968958,68.71957 60.38802,67.969942 59.741,67.271927 59.146317,66.532467 56.746035,63.547837 55.31033,60.115081 54.473386,56.407466 c -0.03214,-0.142297 -0.05971,-0.285611 -0.09382,-0.465556 z"
       id="path4"
       style="stroke-width:0.0877324" /><path
       fill="#fffefe"
       opacity="1"
       stroke="none"
       d="m 82.087273,77.553913 c 0.252368,3.333906 -1.948114,5.93786 -4.777452,6.58825 -3.312467,0.761464 -6.688639,-1.400121 -7.379375,-4.751248 -0.701033,-3.401046 1.576453,-6.735962 4.959012,-7.312423 3.434083,-0.585222 6.777545,1.749245 7.197815,5.475421 z"
       id="path5"
       style="stroke-width:0.0877324" /></g></svg>
